# xmcd
#
# Track frame offsets:
# 150
# 9485
# 21808
# 32962
# 46375
# 61584
# 74263
# 88205
# 104198
# 122552
# 137086
# 150209
# 161824
# 177180
# 193654
#
# Disc length: 2829 seconds
#
# Revision: 0
# Processed by: cddbd v1.5.2PL0 Copyright (c) Steve Scherf et al.
# Submitted via: CoinsHifi v1.9g contact@coinshifi.com
#
DISCID=c70b0b0f
DTITLE=Sophie BINANT - Country Made in Breizh
DYEAR=2008
DGENRE=Country
TTITLE0=Your good girl
TTITLE1=Stand by your man
TTITLE2=It's so easy
TTITLE3=Rose garden
TTITLE4=You and me
TTITLE5=When will I be loved
TTITLE6=Country road
TTITLE7=You got it
TTITLE8=Blue bayou
TTITLE9=Proud Mary
TTITLE10=Ruby
TTITLE11=Faire un pont
TTITLE12=Reste avec moi
TTITLE13=Always on my mind
TTITLE14=Suspicious mind
EXTD=
EXTT0=
EXTT1=
EXTT2=
EXTT3=
EXTT4=
EXTT5=
EXTT6=
EXTT7=
EXTT8=
EXTT9=
EXTT10=
EXTT11=
EXTT12=
EXTT13=
EXTT14=
PLAYORDER=
